{"title":"Knockout.2011.480p.BRRip.XviD.Ac3.Feel-Free","uid":6378901,"size":1268549290,"categoryP":"video","categoryS":"movies","magnet":"?xt=urn:btih:2513ef24c9b0feb03c39c6d8e58f3c1e6ef8752a&amp;dn=Knockout.2011.480p.BRRip.XviD.Ac3.Feel-Free&amp;tr=udp%3A%2F%2Ftracker.openbittorrent.com%3A80&amp;tr=udp%3A%2F%2Fopen.demonii.com%3A1337&amp;tr=udp%3A%2F%2Ftracker.coppersurfer.tk%3A6969&amp;tr=udp%3A%2F%2Fexodus.desync.com%3A6969","seeders":1,"leechers":0,"uploader":"hiest","files":-1,"time":1304959242,"description":" ######## ######## ######## ##          ######## ########  ######## ######## \n ##       ##       ##       ##          ##       ##     ## ##       ##       \n ##       ##       ##       ##          ##       ##     ## ##       ##       \n ######   ######   ######   ##          ######   ########  ######   ######   \n ##       ##       ##       ##          ##       ##   ##   ##       ##       \n ##       ##       ##       ##          ##       ##    ##  ##       ##       \n ##       ######## ######## ########    ##       ##     ## ######## ######## \n\n\n Genre:Family\n Language:English\n IMDb:\n &lt;a href=&quot; http://www.imdb.com/title/tt1691453/&quot; rel=&quot;nofollow&quot; target=&quot;_NEW&quot;&gt; http://www.imdb.com/title/tt1691453/&lt;/a&gt;\n Source:720p.BluRay.x264-7SinS Thanks!\n\n Format : AVI\n Format/Info : Audio Video Interleave\n File size : 1.18 GiB\n Duration : 1h 35mn\n Overall bit rate : 1 775 Kbps\n\n Video\n ID : 0\n Format : MPEG-4 Visual\n Format profile : Advanced Simple@L5\n Format settings, BVOP : Yes\n Format settings, QPel : No\n Format settings, GMC : No warppoints\n Format settings, Matrix : Default (H.263)\n Codec ID : XVID\n Codec ID/Hint : XviD\n Duration : 1h 35mn\n Bit rate : 1 317 Kbps\n Width : 640 pixels\n Height : 360 pixels\n Display aspect ratio : 16:9\n Frame rate : 23.976 fps\n Color space : YUV\n Chroma subsampling : 4:2:0\n Bit depth : 8 bits\n Scan type : Progressive\n Bits/(Pixel*Frame) : 0.238\n Stream size : 897 MiB (74%)\n Writing library : XviD 1.2.1 (UTC 2008-12-04)\n\n Audio\n ID : 1\n Format : AC-3\n Format/Info : Audio Coding 3\n Mode extension : CM (complete main)\n Codec ID : 2000\n Duration : 1h 35mn\n Bit rate mode : Constant\n Bit rate : 448 Kbps\n Channel(s) : 6 channels\n Channel positions : Front: L C R, Side: L R, LFE\n Sampling rate : 48.0 KHz\n Bit depth : 16 bits\n Stream size : 305 MiB (25%)\n Alignment : Aligned on interleaves\n Interleave, duration : 42 ms (1.00 video frame)\n Interleave, preload duration : 512 ms\n\n\n Plot:\n Dan Barnes (Steve Austin) is a former pro boxer who retired after growing weary of his violent existence...\n\n\n\n\n\n\n\n==================================  &lt;a href=&quot;\nhttp://thepiratebay.se/user/hiest&quot; rel=&quot;nofollow&quot; target=&quot;_NEW&quot;&gt;\nhttp://thepiratebay.se/user/hiest&lt;/a&gt;\n==================================\n\n\n\n\n\n\n\nScreen Shots:\n &lt;a href=&quot;\nhttp://www.pix2links.com/images/43871542429170957970.png&quot; rel=&quot;nofollow&quot; target=&quot;_NEW&quot;&gt;\nhttp://www.pix2links.com/images/43871542429170957970.png&lt;/a&gt;\n &lt;a href=&quot;\nhttp://www.pix2links.com/images/22681073946864727539.png&quot; rel=&quot;nofollow&quot; target=&quot;_NEW&quot;&gt;\nhttp://www.pix2links.com/images/22681073946864727539.png&lt;/a&gt;\n &lt;a href=&quot;\nhttp://www.pix2links.com/images/46762545045171269335.png&quot; rel=&quot;nofollow&quot; target=&quot;_NEW&quot;&gt;\nhttp://www.pix2links.com/images/46762545045171269335.png&lt;/a&gt;\n &lt;a href=&quot;\nhttp://www.pix2links.com/images/36021371030030588960.png&quot; rel=&quot;nofollow&quot; target=&quot;_NEW&quot;&gt;\nhttp://www.pix2links.com/images/36021371030030588960.png&lt;/a&gt;\n\n\n ######## ######## ######## ##          ######## ########  ######## ######## \n ##       ##       ##       ##          ##       ##     ## ##       ##       \n ##       ##       ##       ##          ##       ##     ## ##       ##       \n ######   ######   ######   ##          ######   ########  ######   ######   \n ##       ##       ##       ##          ##       ##   ##   ##       ##       \n ##       ##       ##       ##          ##       ##    ##  ##       ##       \n ##       ######## ######## ########    ##       ##     ## ######## ######## ","torrent":{"xt":"urn:btih:2513ef24c9b0feb03c39c6d8e58f3c1e6ef8752a","amp;dn":"Knockout.2011.480p.BRRip.XviD.Ac3.Feel-Free","amp;tr":["udp%3A%2F%2Ftracker.openbittorrent.com%3A80","udp%3A%2F%2Fopen.demonii.com%3A1337","udp%3A%2F%2Ftracker.coppersurfer.tk%3A6969","udp%3A%2F%2Fexodus.desync.com%3A6969"],"infoHash":"2513ef24c9b0feb03c39c6d8e58f3c1e6ef8752a","infoHashBuffer":{"type":"Buffer","data":[37,19,239,36,201,176,254,176,60,57,198,216,229,143,60,30,110,248,117,42]},"announce":[],"urlList":[]}}